# Blender 3.6.1
# www.blender.org
mtllib 123.mtl
o Plane
v -0.479787 0.000000 1.000000
v 0.479787 0.000000 1.000000
v -0.479787 0.000000 -1.000000
v 0.479787 0.000000 -1.000000
v -0.479787 0.014682 -0.777778
v -0.503430 0.137872 -0.568439
v -0.479787 0.014682 -0.333333
v -0.503430 0.137872 -0.123994
v -0.479787 0.014682 0.111111
v -0.503430 0.137872 0.320450
v -0.479787 0.014682 0.555556
v -0.503430 0.137872 0.764895
v 0.456145 0.137872 0.764895
v 0.479787 0.014682 0.555556
v 0.456145 0.137872 0.320450
v 0.479787 0.014682 0.111111
v 0.456145 0.137872 -0.123994
v 0.479787 0.014682 -0.333333
v 0.456145 0.137872 -0.568439
v 0.479787 0.014682 -0.777778
v -0.373168 0.000000 1.000000
v -0.266549 -0.049593 1.000000
v -0.159929 0.000000 1.000000
v -0.053310 -0.049593 1.000000
v 0.053310 0.000000 1.000000
v 0.159929 -0.049593 1.000000
v 0.266549 0.000000 1.000000
v 0.373168 -0.049593 1.000000
v 0.373168 -0.049593 -1.000000
v 0.266549 0.000000 -1.000000
v 0.159929 -0.049593 -1.000000
v 0.053310 0.000000 -1.000000
v -0.053310 -0.049593 -1.000000
v -0.159929 0.000000 -1.000000
v -0.266549 -0.049593 -1.000000
v -0.373168 0.000000 -1.000000
v 0.349526 0.088279 0.764895
v 0.242906 0.137872 0.764895
v 0.136287 0.088279 0.764895
v 0.029667 0.137872 0.764895
v -0.076952 0.088279 0.764895
v -0.183571 0.137872 0.764895
v -0.290191 0.088279 0.764895
v -0.396810 0.137872 0.764895
v 0.373168 -0.034912 0.555556
v 0.266549 0.014682 0.555556
v 0.159929 -0.034912 0.555556
v 0.053310 0.014682 0.555556
v -0.053310 -0.034912 0.555556
v -0.159929 0.014682 0.555556
v -0.266549 -0.034912 0.555556
v -0.373168 0.014682 0.555556
v 0.349526 0.088279 0.320450
v 0.242906 0.137872 0.320450
v 0.136287 0.088279 0.320450
v 0.029667 0.137872 0.320450
v -0.076952 0.088279 0.320450
v -0.183571 0.137872 0.320450
v -0.290191 0.088279 0.320450
v -0.396810 0.137872 0.320450
v 0.373168 -0.034912 0.111111
v 0.266549 0.014682 0.111111
v 0.159929 -0.034912 0.111111
v 0.053310 0.014682 0.111111
v -0.053310 -0.034912 0.111111
v -0.159929 0.014682 0.111111
v -0.266549 -0.034912 0.111111
v -0.373168 0.014682 0.111111
v 0.349526 0.088279 -0.123994
v 0.242906 0.137872 -0.123994
v 0.136287 0.088279 -0.123994
v 0.029667 0.137872 -0.123994
v -0.076952 0.088279 -0.123994
v -0.183571 0.137872 -0.123994
v -0.290191 0.088279 -0.123994
v -0.396810 0.137872 -0.123994
v 0.373168 -0.034912 -0.333333
v 0.266549 0.014682 -0.333333
v 0.159929 -0.034912 -0.333333
v 0.053310 0.014682 -0.333333
v -0.053310 -0.034912 -0.333333
v -0.159929 0.014682 -0.333333
v -0.266549 -0.034912 -0.333333
v -0.373168 0.014682 -0.333333
v 0.349526 0.088279 -0.568439
v 0.242906 0.137872 -0.568439
v 0.136287 0.088279 -0.568439
v 0.029667 0.137872 -0.568439
v -0.076952 0.088279 -0.568439
v -0.183571 0.137872 -0.568439
v -0.290191 0.088279 -0.568439
v -0.396810 0.137872 -0.568439
v 0.373168 -0.034912 -0.777778
v 0.266549 0.014682 -0.777778
v 0.159929 -0.034912 -0.777778
v 0.053310 0.014682 -0.777778
v -0.053310 -0.034912 -0.777778
v -0.159929 0.014682 -0.777778
v -0.266549 -0.034912 -0.777778
v -0.373168 0.014682 -0.777778
vn -0.0089 0.9602 -0.2791
vn -0.4024 0.8650 -0.2997
vn -0.4210 0.9051 -0.0598
vn -0.0000 0.9978 -0.0659
vn -0.0167 0.8618 0.5070
vn -0.3658 0.7863 0.4979
vn -0.4217 0.9067 -0.0045
vn 0.0308 0.9995 -0.0005
vn -0.4216 0.9064 -0.0262
vn -0.0209 0.9995 -0.0220
vn -0.4216 0.9065 -0.0225
vn 0.0309 0.9991 -0.0283
vn -0.0000 0.9997 -0.0231
vn 0.1918 0.9812 -0.0226
vn 0.2203 0.9328 -0.2853
vn -0.0000 0.9535 -0.3013
vn 0.0157 0.9499 -0.3120
vn -0.0000 0.9997 -0.0260
vn 0.2448 0.9692 -0.0249
vn -0.0000 1.0000 0.0013
vn 0.1915 0.9815 -0.0000
vn -0.0206 0.9998 -0.0008
vn -0.0000 0.8626 0.5059
vn 0.2150 0.8517 0.4778
vn 0.0251 0.8634 0.5038
vn 0.2175 0.9739 -0.0643
vt 0.888889 0.888889
vt 1.000000 0.888889
vt 1.000000 1.000000
vt 0.888889 1.000000
vt 0.888889 0.000000
vt 1.000000 0.000000
vt 1.000000 0.111111
vt 0.888889 0.111111
vt 1.000000 0.222222
vt 0.888889 0.222222
vt 1.000000 0.333333
vt 0.888889 0.333333
vt 1.000000 0.444444
vt 0.888889 0.444444
vt 1.000000 0.555556
vt 0.888889 0.555556
vt 1.000000 0.666667
vt 0.888889 0.666667
vt 1.000000 0.777778
vt 0.888889 0.777778
vt 0.000000 0.777778
vt 0.111111 0.777778
vt 0.111111 0.888889
vt 0.000000 0.888889
vt 0.222222 0.777778
vt 0.222222 0.888889
vt 0.333333 0.777778
vt 0.333333 0.888889
vt 0.444444 0.777778
vt 0.444444 0.888889
vt 0.555556 0.777778
vt 0.555556 0.888889
vt 0.666667 0.777778
vt 0.666667 0.888889
vt 0.777778 0.777778
vt 0.777778 0.888889
vt 0.000000 0.666667
vt 0.111111 0.666667
vt 0.222222 0.666667
vt 0.333333 0.666667
vt 0.444445 0.666667
vt 0.555556 0.666667
vt 0.666667 0.666667
vt 0.777778 0.666667
vt 0.000000 0.555556
vt 0.111111 0.555556
vt 0.222222 0.555556
vt 0.333333 0.555556
vt 0.444444 0.555556
vt 0.555556 0.555556
vt 0.666667 0.555556
vt 0.777778 0.555556
vt 0.000000 0.444444
vt 0.111111 0.444444
vt 0.222222 0.444445
vt 0.333333 0.444444
vt 0.444445 0.444445
vt 0.555556 0.444445
vt 0.666667 0.444444
vt 0.777778 0.444444
vt 0.000000 0.333333
vt 0.111111 0.333333
vt 0.222222 0.333333
vt 0.333333 0.333333
vt 0.444444 0.333333
vt 0.555556 0.333333
vt 0.666667 0.333333
vt 0.777778 0.333333
vt 0.000000 0.222222
vt 0.111111 0.222222
vt 0.222222 0.222222
vt 0.333333 0.222222
vt 0.444445 0.222222
vt 0.555556 0.222222
vt 0.666667 0.222222
vt 0.777778 0.222222
vt 0.000000 0.111111
vt 0.111111 0.111111
vt 0.222222 0.111111
vt 0.333333 0.111111
vt 0.444444 0.111111
vt 0.555556 0.111111
vt 0.666667 0.111111
vt 0.777778 0.111111
vt 0.000000 0.000000
vt 0.111111 0.000000
vt 0.222222 0.000000
vt 0.333333 0.000000
vt 0.444444 0.000000
vt 0.555556 0.000000
vt 0.666667 0.000000
vt 0.777778 0.000000
vt 0.111111 1.000000
vt 0.000000 1.000000
vt 0.222222 1.000000
vt 0.333333 1.000000
vt 0.444444 1.000000
vt 0.555556 1.000000
vt 0.666667 1.000000
vt 0.777778 1.000000
s 1
usemtl Material.001
f 93/1/1 20/2/2 4/3/3 29/4/4
f 28/5/5 2/6/6 13/7/7 37/8/8
f 37/8/8 13/7/7 14/9/9 45/10/10
f 45/10/10 14/9/9 15/11/11 53/12/12
f 53/12/12 15/11/11 16/13/9 61/14/10
f 61/14/10 16/13/9 17/15/11 69/16/12
f 69/16/12 17/15/11 18/17/9 77/18/10
f 77/18/10 18/17/9 19/19/11 85/20/12
f 85/20/12 19/19/11 20/2/2 93/1/1
f 6/21/13 92/22/14 100/23/15 5/24/16
f 92/22/14 91/25/12 99/26/1 100/23/15
f 91/25/12 90/27/10 98/28/17 99/26/1
f 90/27/10 89/29/12 97/30/1 98/28/17
f 89/29/12 88/31/10 96/32/17 97/30/1
f 88/31/10 87/33/12 95/34/1 96/32/17
f 87/33/12 86/35/10 94/36/17 95/34/1
f 86/35/10 85/20/12 93/1/1 94/36/17
f 7/37/18 84/38/19 92/22/14 6/21/13
f 84/38/19 83/39/10 91/25/12 92/22/14
f 83/39/10 82/40/12 90/27/10 91/25/12
f 82/40/12 81/41/10 89/29/12 90/27/10
f 81/41/10 80/42/12 88/31/10 89/29/12
f 80/42/12 79/43/10 87/33/12 88/31/10
f 79/43/10 78/44/12 86/35/10 87/33/12
f 78/44/12 77/18/10 85/20/12 86/35/10
f 8/45/13 76/46/14 84/38/19 7/37/18
f 76/46/14 75/47/12 83/39/10 84/38/19
f 75/47/12 74/48/10 82/40/12 83/39/10
f 74/48/10 73/49/12 81/41/10 82/40/12
f 73/49/12 72/50/10 80/42/12 81/41/10
f 72/50/10 71/51/12 79/43/10 80/42/12
f 71/51/12 70/52/10 78/44/12 79/43/10
f 70/52/10 69/16/12 77/18/10 78/44/12
f 9/53/18 68/54/19 76/46/14 8/45/13
f 68/54/19 67/55/10 75/47/12 76/46/14
f 67/55/10 66/56/12 74/48/10 75/47/12
f 66/56/12 65/57/10 73/49/12 74/48/10
f 65/57/10 64/58/12 72/50/10 73/49/12
f 64/58/12 63/59/10 71/51/12 72/50/10
f 63/59/10 62/60/12 70/52/10 71/51/12
f 62/60/12 61/14/10 69/16/12 70/52/10
f 10/61/13 60/62/14 68/54/19 9/53/18
f 60/62/14 59/63/12 67/55/10 68/54/19
f 59/63/12 58/64/10 66/56/12 67/55/10
f 58/64/10 57/65/12 65/57/10 66/56/12
f 57/65/12 56/66/10 64/58/12 65/57/10
f 56/66/10 55/67/12 63/59/10 64/58/12
f 55/67/12 54/68/10 62/60/12 63/59/10
f 54/68/10 53/12/12 61/14/10 62/60/12
f 11/69/18 52/70/19 60/62/14 10/61/13
f 52/70/19 51/71/10 59/63/12 60/62/14
f 51/71/10 50/72/12 58/64/10 59/63/12
f 50/72/12 49/73/10 57/65/12 58/64/10
f 49/73/10 48/74/12 56/66/10 57/65/12
f 48/74/12 47/75/10 55/67/12 56/66/10
f 47/75/10 46/76/12 54/68/10 55/67/12
f 46/76/12 45/10/10 53/12/12 54/68/10
f 12/77/20 44/78/21 52/70/19 11/69/18
f 44/78/21 43/79/8 51/71/10 52/70/19
f 43/79/8 42/80/22 50/72/12 51/71/10
f 42/80/22 41/81/8 49/73/10 50/72/12
f 41/81/8 40/82/22 48/74/12 49/73/10
f 40/82/22 39/83/8 47/75/10 48/74/12
f 39/83/8 38/84/22 46/76/12 47/75/10
f 38/84/22 37/8/8 45/10/10 46/76/12
f 1/85/23 21/86/24 44/78/21 12/77/20
f 21/86/24 22/87/5 43/79/8 44/78/21
f 22/87/5 23/88/25 42/80/22 43/79/8
f 23/88/25 24/89/5 41/81/8 42/80/22
f 24/89/5 25/90/25 40/82/22 41/81/8
f 25/90/25 26/91/5 39/83/8 40/82/22
f 26/91/5 27/92/25 38/84/22 39/83/8
f 27/92/25 28/5/5 37/8/8 38/84/22
f 5/24/16 100/23/15 36/93/26 3/94/4
f 100/23/15 99/26/1 35/95/4 36/93/26
f 99/26/1 98/28/17 34/96/4 35/95/4
f 98/28/17 97/30/1 33/97/4 34/96/4
f 97/30/1 96/32/17 32/98/4 33/97/4
f 96/32/17 95/34/1 31/99/4 32/98/4
f 95/34/1 94/36/17 30/100/4 31/99/4
f 94/36/17 93/1/1 29/4/4 30/100/4
